<svg xmlns="http://www.w3.org/2000/svg" version="1.1" xmlns:xlink="http://www.w3.org/1999/xlink" width="200" height="200"><svg xmlns="http://www.w3.org/2000/svg" version="1.1" xmlns:xlink="http://www.w3.org/1999/xlink" viewBox="0 0 200 200"><rect width="200" height="200" fill="url('#gradient')"></rect><defs><linearGradient id="SvgjsLinearGradient1006" gradientTransform="rotate(45 0.5 0.5)"><stop offset="0%" stop-color="#f4f0dd"></stop><stop offset="100%" stop-color="#f68c13"></stop></linearGradient></defs><g><g fill="#263032" transform="matrix(4.211103495544894,0,0,4.211103495544894,6.218220848102462,122.80316436838172)" stroke="#498466" stroke-width="0.2"><path d="M4.39-10.57L4.39 0L1.09 0L1.09-10.57L4.39-10.57ZM0.90-13.29L0.90-13.29Q0.90-13.99 1.41-14.44Q1.91-14.89 2.72-14.89Q3.54-14.89 4.04-14.44Q4.55-13.99 4.55-13.29Q4.55-12.59 4.04-12.14Q3.54-11.69 2.72-11.69Q1.91-11.69 1.41-12.14Q0.90-12.59 0.90-13.29ZM16.23-5.36L16.23-5.21Q16.23-2.74 15.12-1.27Q14.01 0.20 12.13 0.20L12.13 0.20Q10.67 0.20 9.74-0.87L9.74-0.87L9.74 4.06L6.45 4.06L6.45-10.57L9.52-10.57L9.62-9.59Q10.57-10.76 12.11-10.76L12.11-10.76Q14.06-10.76 15.15-9.32Q16.23-7.88 16.23-5.36L16.23-5.36ZM12.94-5.06L12.94-5.41Q12.94-8.22 11.30-8.22L11.30-8.22Q10.13-8.22 9.74-7.38L9.74-7.38L9.74-3.22Q10.17-2.34 11.32-2.34L11.32-2.34Q12.89-2.34 12.94-5.06L12.94-5.06ZM26.92 0L23.63 0Q23.46-0.32 23.32-0.95L23.32-0.95Q22.41 0.20 20.78 0.20L20.78 0.20Q19.29 0.20 18.24-0.71Q17.20-1.61 17.20-2.98L17.20-2.98Q17.20-4.70 18.47-5.58Q19.74-6.46 22.16-6.46L22.16-6.46L23.17-6.46L23.17-7.01Q23.17-8.47 21.91-8.47L21.91-8.47Q20.74-8.47 20.74-7.31L20.74-7.31L17.45-7.31Q17.45-8.85 18.75-9.80Q20.06-10.76 22.08-10.76Q24.10-10.76 25.27-9.78Q26.45-8.79 26.47-7.07L26.47-7.07L26.47-2.39Q26.49-0.94 26.92-0.17L26.92-0.17L26.92 0ZM21.57-2.15L21.57-2.15Q22.19-2.15 22.59-2.41Q23.00-2.68 23.17-3.01L23.17-3.01L23.17-4.70L22.22-4.70Q20.50-4.70 20.50-3.15L20.50-3.15Q20.50-2.71 20.80-2.43Q21.10-2.15 21.57-2.15ZM28.32-10.57L31.41-10.57L31.51-9.33Q32.64-10.76 34.53-10.76L34.53-10.76Q36.53-10.76 37.24-9.17L37.24-9.17Q38.31-10.76 40.34-10.76L40.34-10.76Q43.55-10.76 43.64-6.88L43.64-6.88L43.64 0L40.34 0L40.34-6.67Q40.34-7.48 40.07-7.85Q39.79-8.22 39.07-8.22L39.07-8.22Q38.10-8.22 37.62-7.35L37.62-7.35L37.63-7.22L37.63 0L34.33 0L34.33-6.65Q34.33-7.48 34.06-7.85Q33.80-8.22 33.06-8.22L33.06-8.22Q32.11-8.22 31.61-7.35L31.61-7.35L31.61 0L28.32 0L28.32-10.57Z"></path></g></g></svg><style>@media (prefers-color-scheme: light) { :root { filter: none; } }
@media (prefers-color-scheme: dark) { :root { filter: none; } }
</style></svg>